<mxfile host="app.diagrams.net" modified="2022-05-19T10:41:04.800Z" agent="5.0 (Windows NT 10.0; Win64; x64) AppleWebKit/537.36 (KHTML, like Gecko) Chrome/101.0.4951.67 Safari/537.36" etag="73RnXrgz2k7w2QwNlWKW" version="17.4.1" type="github">
  <diagram id="WA5rULB8rLlpRRAn-xIC" name="Page-1">
    <mxGraphModel dx="862" dy="482" grid="0" gridSize="10" guides="1" tooltips="1" connect="1" arrows="1" fold="1" page="1" pageScale="1" pageWidth="850" pageHeight="1100" math="0" shadow="0">
      <root>
        <mxCell id="0" />
        <mxCell id="1" parent="0" />
        <mxCell id="PoFwz_niMQ0QpMciBnzu-5" value="Mahasiswa" style="swimlane;" parent="1" vertex="1">
          <mxGeometry x="120" y="30" width="290" height="559" as="geometry" />
        </mxCell>
        <mxCell id="PoFwz_niMQ0QpMciBnzu-23" value="" style="edgeStyle=orthogonalEdgeStyle;rounded=0;orthogonalLoop=1;jettySize=auto;html=1;fontSize=11;" parent="PoFwz_niMQ0QpMciBnzu-5" source="PoFwz_niMQ0QpMciBnzu-6" target="PoFwz_niMQ0QpMciBnzu-7" edge="1">
          <mxGeometry relative="1" as="geometry" />
        </mxCell>
        <mxCell id="PoFwz_niMQ0QpMciBnzu-6" value="Mulai" style="ellipse;whiteSpace=wrap;html=1;" parent="PoFwz_niMQ0QpMciBnzu-5" vertex="1">
          <mxGeometry x="95" y="30" width="100" height="50" as="geometry" />
        </mxCell>
        <mxCell id="PoFwz_niMQ0QpMciBnzu-24" value="" style="edgeStyle=orthogonalEdgeStyle;rounded=0;orthogonalLoop=1;jettySize=auto;html=1;fontSize=11;" parent="PoFwz_niMQ0QpMciBnzu-5" source="PoFwz_niMQ0QpMciBnzu-7" target="PoFwz_niMQ0QpMciBnzu-9" edge="1">
          <mxGeometry relative="1" as="geometry" />
        </mxCell>
        <mxCell id="PoFwz_niMQ0QpMciBnzu-26" value="" style="edgeStyle=orthogonalEdgeStyle;rounded=0;orthogonalLoop=1;jettySize=auto;html=1;fontSize=11;" parent="PoFwz_niMQ0QpMciBnzu-5" source="PoFwz_niMQ0QpMciBnzu-7" edge="1">
          <mxGeometry relative="1" as="geometry">
            <mxPoint x="370" y="150" as="targetPoint" />
          </mxGeometry>
        </mxCell>
        <mxCell id="PoFwz_niMQ0QpMciBnzu-7" value="Kebutuhan Informasi&lt;br&gt;(kurikulum, bimbingan, dosen, mahasiswa)" style="rounded=0;whiteSpace=wrap;html=1;" parent="PoFwz_niMQ0QpMciBnzu-5" vertex="1">
          <mxGeometry x="85" y="120" width="120" height="60" as="geometry" />
        </mxCell>
        <mxCell id="PoFwz_niMQ0QpMciBnzu-9" value="Kebutuhan Informasi ditunda" style="rounded=0;whiteSpace=wrap;html=1;" parent="PoFwz_niMQ0QpMciBnzu-5" vertex="1">
          <mxGeometry x="85" y="210" width="120" height="60" as="geometry" />
        </mxCell>
        <mxCell id="PoFwz_niMQ0QpMciBnzu-10" value="Menerima Informasi&lt;br&gt;(kurikulum, bimbingan, dosen, mahasiswa)" style="rounded=0;whiteSpace=wrap;html=1;" parent="PoFwz_niMQ0QpMciBnzu-5" vertex="1">
          <mxGeometry x="85" y="400" width="120" height="60" as="geometry" />
        </mxCell>
        <mxCell id="PoFwz_niMQ0QpMciBnzu-27" value="" style="edgeStyle=orthogonalEdgeStyle;rounded=0;orthogonalLoop=1;jettySize=auto;html=1;fontSize=11;" parent="1" source="PoFwz_niMQ0QpMciBnzu-8" target="PoFwz_niMQ0QpMciBnzu-11" edge="1">
          <mxGeometry relative="1" as="geometry" />
        </mxCell>
        <mxCell id="PoFwz_niMQ0QpMciBnzu-8" value="Data Informasi&lt;br&gt;(kurikulum, bimbingan, dosen, mahasiswa)" style="rounded=0;whiteSpace=wrap;html=1;" parent="1" vertex="1">
          <mxGeometry x="490" y="150" width="120" height="60" as="geometry" />
        </mxCell>
        <mxCell id="PoFwz_niMQ0QpMciBnzu-28" value="" style="edgeStyle=orthogonalEdgeStyle;rounded=0;orthogonalLoop=1;jettySize=auto;html=1;fontSize=11;" parent="1" source="PoFwz_niMQ0QpMciBnzu-11" target="PoFwz_niMQ0QpMciBnzu-12" edge="1">
          <mxGeometry relative="1" as="geometry" />
        </mxCell>
        <mxCell id="PoFwz_niMQ0QpMciBnzu-30" value="" style="edgeStyle=orthogonalEdgeStyle;rounded=0;orthogonalLoop=1;jettySize=auto;html=1;fontSize=11;entryX=1;entryY=0.5;entryDx=0;entryDy=0;" parent="1" source="PoFwz_niMQ0QpMciBnzu-11" target="PoFwz_niMQ0QpMciBnzu-9" edge="1">
          <mxGeometry relative="1" as="geometry">
            <mxPoint x="430" y="270" as="targetPoint" />
          </mxGeometry>
        </mxCell>
        <mxCell id="PoFwz_niMQ0QpMciBnzu-11" value="Cari" style="rhombus;whiteSpace=wrap;html=1;" parent="1" vertex="1">
          <mxGeometry x="510" y="230" width="80" height="80" as="geometry" />
        </mxCell>
        <mxCell id="PoFwz_niMQ0QpMciBnzu-31" value="" style="edgeStyle=orthogonalEdgeStyle;rounded=0;orthogonalLoop=1;jettySize=auto;html=1;fontSize=11;" parent="1" source="PoFwz_niMQ0QpMciBnzu-12" target="PoFwz_niMQ0QpMciBnzu-14" edge="1">
          <mxGeometry relative="1" as="geometry" />
        </mxCell>
        <mxCell id="PoFwz_niMQ0QpMciBnzu-12" value="Informasi Ketemu&lt;br&gt;(kurikulum, bimbingan, dosen, mahasiswa)" style="rounded=0;whiteSpace=wrap;html=1;" parent="1" vertex="1">
          <mxGeometry x="490" y="330" width="120" height="60" as="geometry" />
        </mxCell>
        <mxCell id="PoFwz_niMQ0QpMciBnzu-32" value="" style="edgeStyle=orthogonalEdgeStyle;rounded=0;orthogonalLoop=1;jettySize=auto;html=1;fontSize=11;" parent="1" source="PoFwz_niMQ0QpMciBnzu-14" target="PoFwz_niMQ0QpMciBnzu-21" edge="1">
          <mxGeometry relative="1" as="geometry" />
        </mxCell>
        <mxCell id="PoFwz_niMQ0QpMciBnzu-34" value="" style="edgeStyle=orthogonalEdgeStyle;rounded=0;orthogonalLoop=1;jettySize=auto;html=1;fontSize=11;entryX=1;entryY=0.5;entryDx=0;entryDy=0;" parent="1" source="PoFwz_niMQ0QpMciBnzu-14" target="PoFwz_niMQ0QpMciBnzu-10" edge="1">
          <mxGeometry relative="1" as="geometry">
            <mxPoint x="390" y="460" as="targetPoint" />
          </mxGeometry>
        </mxCell>
        <mxCell id="PoFwz_niMQ0QpMciBnzu-14" value="&lt;font style=&quot;font-size: 11px&quot;&gt;Memberikan Informasi&lt;br&gt;&lt;span style=&quot;font-size: 12px&quot;&gt;(kurikulum, bimbingan, dosen, mahasiswa)&lt;/span&gt;&lt;br&gt;&lt;/font&gt;" style="rounded=0;whiteSpace=wrap;html=1;" parent="1" vertex="1">
          <mxGeometry x="490" y="430" width="120" height="60" as="geometry" />
        </mxCell>
        <mxCell id="PoFwz_niMQ0QpMciBnzu-16" value="Pihak Kampus" style="swimlane;" parent="1" vertex="1">
          <mxGeometry x="410" y="30" width="290" height="559" as="geometry" />
        </mxCell>
        <mxCell id="PoFwz_niMQ0QpMciBnzu-21" value="Selesai" style="ellipse;whiteSpace=wrap;html=1;" parent="PoFwz_niMQ0QpMciBnzu-16" vertex="1">
          <mxGeometry x="90" y="495" width="100" height="50" as="geometry" />
        </mxCell>
      </root>
    </mxGraphModel>
  </diagram>
</mxfile>
